<svg width="30" height="30" viewBox="0 0 30 30" fill="none" xmlns="http://www.w3.org/2000/svg">
<path fill-rule="evenodd" clip-rule="evenodd" d="M15 9.6325C17.76 9.6325 20 11.8725 20 14.6325C20 15.1425 19.9 15.6325 19.76 16.0925L22.82 19.1525C24.21 17.9225 25.31 16.3825 26 14.6225C24.27 10.2425 20 7.1325 15 7.1325C13.73 7.1325 12.51 7.3325 11.36 7.7025L13.53 9.8725C14 9.7325 14.49 9.6325 15 9.6325ZM5.71 6.2925C5.32 6.6825 5.32 7.3125 5.71 7.7025L7.68 9.6725C6.06 10.9625 4.77 12.6625 4 14.6325C5.73 19.0225 10 22.1325 15 22.1325C16.52 22.1325 17.97 21.8325 19.31 21.3125L22.03 24.0325C22.42 24.4225 23.05 24.4225 23.44 24.0325C23.83 23.6425 23.83 23.0125 23.44 22.6225L7.13 6.2925C6.74 5.9025 6.1 5.9025 5.71 6.2925ZM15 19.6325C12.24 19.6325 10 17.3925 10 14.6325C10 13.8625 10.18 13.1325 10.49 12.4925L12.06 14.0625C12.03 14.2425 12 14.4325 12 14.6325C12 16.2925 13.34 17.6325 15 17.6325C15.2 17.6325 15.38 17.6025 15.57 17.5625L17.14 19.1325C16.49 19.4525 15.77 19.6325 15 19.6325ZM17.97 14.3025C17.82 12.9025 16.72 11.8125 15.33 11.6625L17.97 14.3025Z" fill="#ADB8CC"/>
</svg>
